PathFileType	4	(X/Y/Z)	TVC_20_BWA5_walk_RCNL2025.trc
DataRate	CameraRate	NumFrames	NumMarkers	Units	OrigDataRate	OrigDataStartFrame	OrigNumFrames
100	100	6	27	mm	100	83	220
Frame#	Time	R_Shoulder			L_Shoulder			C7			J_Notch			R_Elbow			L_Elbow			R_Wrist			L_Wrist			R_Asis			L_Asis			R_Psis			L_Psis			Sacral			Thoracic			Sternum			R_Thigh_Lateral			R_Knee_Lateral			R_Shank_Lateral			R_Ankle_Lateral			R_Heel			R_Toe			L_Thigh_Lateral			L_Knee_Lateral			L_Shank_Lateral			L_Ankle_Lateral			L_Heel			L_Toe		
		X1	Y1	Z1	X2	Y2	Z2	X3	Y3	Z3	X4	Y4	Z4	X5	Y5	Z5	X6	Y6	Z6	X7	Y7	Z7	X8	Y8	Z8	X9	Y9	Z9	X10	Y10	Z10	X11	Y11	Z11	X12	Y12	Z12	X13	Y13	Z13	X14	Y14	Z14	X15	Y15	Z15	X16	Y16	Z16	X17	Y17	Z17	X18	Y18	Z18	X19	Y19	Z19	X20	Y20	Z20	X21	Y21	Z21	X22	Y22	Z22	X23	Y23	Z23	X24	Y24	Z24	X25	Y25	Z25	X26	Y26	Z26	X27	Y27	Z27
83	0.82000000	-1001.750244	1398.663086	362.403198	-1049.292847	1419.865479	-1.365482	-1050.572510	1463.433960	194.770676	-937.184387	1331.423828	179.050507	-1068.502808	1097.034058	471.104309	-1102.807373	1118.373047	-118.951469	-903.314362	896.435089	446.064743	-931.549316	921.786011	-113.221691	-989.377991	1005.737671	317.677673	-990.156860	1014.492371	39.960941	-1142.964600	1006.981995	227.244431	-1155.808105	1003.731750	138.007278	-1149.386353	1005.356873	182.625854	-1167.847778	1239.506226	182.594818	-926.567078	1189.497681	169.413544	-908.085266	692.436218	390.537689	-850.050842	497.448059	320.158691	-930.593140	333.597900	376.829834	-1029.275635	123.170753	303.072723	-1084.868408	112.814079	257.394836	-905.029419	48.353638	283.532806	-1045.468994	640.180725	-12.020761	-1030.133789	482.290588	74.350853	-1076.071411	300.655731	25.947800	-1121.394409	67.983681	122.730095	-1168.809448	59.795303	163.804657	-982.963013	35.617298	147.388260
84	0.83000000	-988.659729	1397.644165	362.228271	-1036.750000	1418.969727	-1.421033	-1037.867676	1462.377441	194.654831	-924.022217	1330.167358	178.499466	-1057.509644	1096.869141	471.638885	-1087.179932	1117.720337	-120.846359	-892.599915	895.968414	447.507233	-911.474274	925.149384	-113.105724	-975.845886	1004.628052	317.727936	-978.392639	1013.267090	39.781010	-1130.022583	1005.818115	228.209061	-1143.555786	1002.764526	139.116638	-1136.789185	1004.291321	183.662849	-1155.231201	1238.566528	183.245346	-914.144104	1188.214722	168.745544	-889.256287	693.785828	390.846161	-830.310242	499.291107	319.351837	-902.594604	331.434296	376.610413	-989.084595	115.857002	303.336639	-1043.738525	101.890839	257.356262	-860.426392	48.439590	283.935272	-1038.098633	639.523010	-11.881780	-1026.016235	481.430542	74.463638	-1073.758667	300.286652	25.953876	-1121.365112	68.044373	123.000526	-1168.746094	60.004128	164.171158	-982.911804	35.513748	147.378998
85	0.84000000	-975.503296	1396.344238	362.053589	-1024.199219	1417.708862	-1.453635	-1025.164185	1461.001831	194.534180	-910.303467	1328.609253	177.777374	-1046.419312	1096.411987	472.160858	-1071.346680	1116.728027	-122.700806	-881.805969	895.199280	448.921173	-891.484711	928.099792	-112.852699	-962.261841	1003.078552	317.849823	-966.660095	1011.788818	39.648930	-1117.015991	1004.271545	229.239487	-1131.274902	1001.435303	140.291016	-1124.145447	1002.853424	184.765251	-1142.608521	1237.308594	184.029510	-901.732300	1186.555542	168.114944	-871.712952	694.425232	391.211304	-811.314636	500.604614	318.645142	-875.567810	329.443909	376.469574	-948.607788	109.208382	303.580048	-1002.083252	91.637344	257.211060	-815.886963	49.390564	284.285583	-1030.393921	638.704956	-11.718521	-1021.505310	480.462769	74.540764	-1071.128418	299.855011	25.946762	-1121.313599	68.107208	123.243889	-1168.662720	60.236668	164.496002	-982.715149	35.382942	147.459579
86	0.85000000	-962.278076	1394.791626	361.887268	-1011.633911	1416.114990	-1.452814	-1012.456421	1459.332642	194.417160	-897.132935	1326.524414	177.289673	-1035.219971	1095.685791	472.673737	-1055.304321	1115.426880	-124.487999	-870.934662	894.139130	450.303635	-871.596161	930.634583	-112.455502	-948.597595	1001.139893	318.016418	-954.961548	1010.093750	39.547935	-1103.928101	1002.373230	230.336441	-1118.950562	999.773438	141.536728	-1111.439331	1001.073334	185.936584	-1129.965576	1235.752686	184.949173	-889.316833	1184.560791	167.525360	-855.634583	694.218079	391.561157	-793.063782	501.381378	318.034607	-849.469910	327.555023	376.398407	-907.940247	103.319458	303.784668	-960.048889	82.261147	256.975250	-771.571106	51.229027	284.573669	-1022.390991	637.729370	-11.545590	-1016.613403	479.388397	74.580292	-1068.246948	299.369629	25.917746	-1121.238159	68.180664	123.456276	-1168.555176	60.500805	164.778641	-982.431213	35.244099	147.605820
87	0.86000000	-948.981384	1393.016968	361.737915	-999.047424	1414.226318	-1.408203	-999.737183	1457.399658	194.313263	-884.477600	1324.096436	177.035507	-1023.899597	1094.716553	473.182648	-1039.056396	1113.852661	-126.181046	-859.986694	892.803558	451.652740	-851.821655	932.761139	-111.909065	-934.825989	998.868347	318.200256	-943.295288	1008.218567	39.463413	-1090.741699	1000.159119	231.499954	-1106.566895	997.812317	142.860092	-1098.654297	998.985718	187.180023	-1117.287109	1233.922607	186.002609	-876.880066	1182.277466	166.977798	-841.124756	693.033142	391.806213	-775.540222	501.626160	317.507935	-824.184387	325.704956	376.374634	-867.209290	98.269791	303.919769	-917.828308	73.962601	256.657867	-727.665100	53.945045	284.808228	-1014.151489	636.611572	-11.389653	-1011.357178	478.208801	74.580177	-1065.165527	298.837952	25.862345	-1121.135254	68.275543	123.637672	-1168.419434	60.809261	165.024338	-982.129578	35.116283	147.785339
88	0.87000000	-935.610596	1391.051514	361.614532	-986.432617	1412.085327	-1.309859	-986.997986	1455.235107	194.232864	-871.921326	1321.531860	176.877777	-1012.446228	1093.531738	473.694000	-1022.614441	1112.044189	-127.753868	-848.960846	891.211792	452.967697	-832.172302	934.496216	-111.210308	-920.921936	996.322815	318.374969	-931.655151	1006.198975	39.383816	-1077.439697	997.669434	232.729187	-1094.107178	995.588745	144.266739	-1085.773438	996.629089	188.497963	-1104.556274	1231.845703	187.184402	-864.402039	1179.756592	166.471329	-828.183960	690.778381	391.865326	-758.708618	501.356995	317.045807	-799.556396	323.856720	376.366180	-826.585510	94.120995	303.951691	-875.658997	66.912003	256.263947	-684.376221	57.491314	285.012329	-1005.759583	635.380249	-11.283889	-1005.753418	476.925323	74.538902	-1061.918457	298.267517	25.781698	-1120.999268	68.405022	123.793358	-1168.250977	61.180553	165.243835	-981.864563	35.011536	147.968933
